<svg width="40" height="40" viewBox="0 0 40 40" fill="none" xmlns="http://www.w3.org/2000/svg">
<rect width="40" height="40" rx="20" fill="#DFDDEE"/>
<path fill-rule="evenodd" clip-rule="evenodd" d="M20 10C16.4496 10 13.5714 12.7982 13.5714 16.25V19.934C13.5714 19.9957 13.5526 20.056 13.5174 20.1074L11.3277 23.3008C11.114 23.6124 11 23.9785 11 24.353C11 25.4007 11.8736 26.25 12.9512 26.25H27.0488C28.1265 26.25 29 25.4007 29 24.353C29 23.9785 28.886 23.6124 28.6723 23.3008L26.4826 20.1074C26.4473 20.056 26.4286 19.9957 26.4286 19.934V16.25C26.4286 12.7982 23.5504 10 20 10ZM15.5 16.25C15.5 13.8337 17.5147 11.875 20 11.875C22.4853 11.875 24.5 13.8337 24.5 16.25V19.934C24.5 20.3659 24.6315 20.7881 24.8779 21.1474L27.0676 24.3407C27.0701 24.3444 27.0714 24.3486 27.0714 24.353C27.0714 24.3558 27.0708 24.3591 27.0708 24.3591L27.07 24.3613C27.07 24.3613 27.0676 24.3659 27.0647 24.3685C27.062 24.3712 27.0573 24.3736 27.0573 24.3736C27.0573 24.3736 27.0537 24.375 27.0488 24.375H12.9512C12.9463 24.375 12.9427 24.3736 12.9427 24.3736C12.9427 24.3736 12.9379 24.3712 12.9352 24.3685C12.9325 24.3659 12.9299 24.3613 12.9299 24.3613C12.9299 24.3613 12.9286 24.3578 12.9286 24.353C12.9286 24.3486 12.9299 24.3444 12.9324 24.3407L15.1221 21.1474C15.3685 20.7881 15.5 20.3659 15.5 19.934V16.25Z" fill="#5E57A9"/>
<path d="M22.5516 27.8119C22.3937 29.0454 21.3115 30 20 30C18.6885 30 17.6063 29.0454 17.4484 27.8119C17.4265 27.6406 17.5725 27.5 17.75 27.5H22.25C22.4275 27.5 22.5735 27.6406 22.5516 27.8119Z" fill="#5E57A9"/>
</svg>
