<svg width="86" height="35" viewBox="0 0 86 35" fill="none" xmlns="http://www.w3.org/2000/svg">
<rect width="86" height="35" rx="17.5" fill="#DFDDEE"/>
<path d="M28.7422 19.6797L30.1562 20.2969C29.4062 22.3672 27.5156 23.6562 25.3203 23.6562C21.7031 23.6562 19.75 21.2266 19.75 17.7266C19.75 14.5156 21.9141 11.8984 25.1797 11.8984C27.3281 11.8984 29.25 13.0234 30.0234 15.0234L28.5703 15.6562C28.0078 14.2578 26.8438 13.3203 25.3047 13.3203C22.7188 13.3203 21.625 15.5234 21.625 17.7812C21.625 20.1641 22.8438 22.2031 25.3828 22.2031C26.9609 22.2031 28.2188 21.125 28.7422 19.6797ZM32.0469 23.5V12.0625H33.8438V22.0625H39.0391V23.5H32.0469ZM40.8906 23.5V12.0625H42.7031V23.5H40.8906ZM53.8672 19.6797L55.2812 20.2969C54.5312 22.3672 52.6406 23.6562 50.4453 23.6562C46.8281 23.6562 44.875 21.2266 44.875 17.7266C44.875 14.5156 47.0391 11.8984 50.3047 11.8984C52.4531 11.8984 54.375 13.0234 55.1484 15.0234L53.6953 15.6562C53.1328 14.2578 51.9688 13.3203 50.4297 13.3203C47.8438 13.3203 46.75 15.5234 46.75 17.7812C46.75 20.1641 47.9688 22.2031 50.5078 22.2031C52.0859 22.2031 53.3438 21.125 53.8672 19.6797ZM57.1719 23.5V12.0625H58.9688V17.375L63.6719 12.0469H65.6172L60.6641 17.5625L65.8594 23.5H63.7344L58.9688 18.0625V23.5H57.1719Z" fill="#5E57A9"/>
</svg>
