<svg width="183" height="56" viewBox="0 0 183 56" fill="none" xmlns="http://www.w3.org/2000/svg">
<g clip-path="url(#clip0_75_861)">
<path d="M75.7195 20.0504V22.0618H63.5V20.0504H75.7195ZM65.4929 31.9844H75.7195V33.9958H63.5V23.0696H65.4929V25.5135H74.3798V27.5249H65.4929V31.9844Z" fill="#403E8C"/>
<path d="M83.4374 23.5945L84.748 26.0048L80.3628 34H77.7291L83.4374 23.5945ZM93.0857 34H90.4521L85.4095 24.8038L84.0948 22.4019L85.4053 20L86.7242 22.3977L93.0857 33.9958V34Z" fill="#403E8C"/>
<path d="M105.634 28.0288C105.963 28.6125 106.154 29.2885 106.154 30.0066C106.154 30.7246 105.967 31.4007 105.634 31.9844C104.952 33.1854 103.67 33.9958 102.197 33.9958H97.8911C96.4183 33.9958 95.1369 33.1854 94.4504 31.9844C94.1342 31.4301 93.9469 30.7918 93.9303 30.1074H95.9274C95.9856 31.153 96.8427 31.9844 97.8911 31.9844H102.197C103.279 31.9844 104.157 31.0984 104.157 30.0066C104.157 28.9148 103.275 28.0288 102.197 28.0288H97.887C96.7761 28.0288 95.7693 27.5669 95.0495 26.8194C94.8165 26.5801 94.6168 26.3113 94.4504 26.0174C94.1217 25.4337 93.9303 24.7576 93.9303 24.0396C93.9303 23.3215 94.1175 22.6413 94.4504 22.0618C95.1327 20.8608 96.4141 20.0504 97.887 20.0504H102.089C102.122 20.0504 102.156 20.0504 102.193 20.0504C102.231 20.0504 102.264 20.0504 102.297 20.0504C103.724 20.0882 104.964 20.886 105.634 22.0618C105.95 22.6161 106.137 23.2543 106.154 23.9346H104.157C104.103 22.9142 103.279 22.0954 102.264 22.0618H97.887C96.8052 22.0618 95.9274 22.952 95.9274 24.0396C95.9274 25.0642 96.7054 25.9124 97.6956 26.009C97.7622 26.009 97.8287 26.0048 97.8953 26.0048C98.0118 26.0048 98.1241 26.009 98.2406 26.0216H102.201C103.67 26.0216 104.956 26.832 105.638 28.033L105.634 28.0288Z" fill="#403E8C"/>
<path d="M118.931 20.0084L114.009 26.7984L113.859 27.0042L113.851 27.0126L113.664 27.2729L113.618 27.3359V33.9958H111.625V27.3401L111.575 27.2687L111.388 27.0084L111.38 27L111.23 26.7942L106.312 20.0084H108.779L112.619 25.3077L116.46 20.0084H118.927H118.931Z" fill="#403E8C"/>
<path d="M130.002 22.066V20.0504H142.33V22.0618H130.002V22.066ZM135.066 34V23.0696H137.058V33.9958H135.066V34Z" fill="#403E8C"/>
<path d="M146.595 23.5945L147.905 26.0048L143.52 34H140.886L146.595 23.5945ZM156.243 34H153.609L148.567 24.8038L147.252 22.4019L148.562 20L149.881 22.3977L156.243 33.9958V34Z" fill="#403E8C"/>
<path d="M168.296 34H162.33C160.391 34 158.635 33.2316 157.358 31.9886C156.064 30.7289 155.261 28.9778 155.261 27.042C155.261 25.1062 156.064 23.3551 157.358 22.0954C158.635 20.8524 160.391 20.084 162.33 20.084H168.271V22.0954H161.631C159.138 22.4313 157.208 24.5225 157.208 27.042C157.208 29.5615 159.134 31.6569 161.631 31.9886H166.303V27.5543H162.363L161.443 25.5429H168.296V34Z" fill="#403E8C"/>
<path d="M181.98 28.0288C182.309 28.6125 182.5 29.2885 182.5 30.0066C182.5 30.7246 182.313 31.4007 181.98 31.9844C181.298 33.1854 180.016 33.9958 178.543 33.9958H174.237C172.764 33.9958 171.483 33.1854 170.796 31.9844C170.48 31.4301 170.293 30.7918 170.276 30.1074H172.273C172.332 31.153 173.189 31.9844 174.237 31.9844H178.543C179.625 31.9844 180.503 31.0984 180.503 30.0066C180.503 28.9148 179.621 28.0288 178.543 28.0288H174.233C173.118 28.0288 172.115 27.5669 171.396 26.8194C171.163 26.5801 170.963 26.3113 170.796 26.0174C170.468 25.4337 170.276 24.7576 170.276 24.0396C170.276 23.3215 170.464 22.6413 170.796 22.0618C171.479 20.8608 172.76 20.0504 174.233 20.0504H178.435C178.468 20.0504 178.502 20.0504 178.539 20.0504C178.577 20.0504 178.61 20.0504 178.643 20.0504C180.07 20.0882 181.31 20.886 181.98 22.0618C182.296 22.6161 182.483 23.2543 182.5 23.9346H180.503C180.449 22.9142 179.625 22.0954 178.61 22.0618H174.233C173.151 22.0618 172.273 22.952 172.273 24.0396C172.273 25.0642 173.051 25.9124 174.042 26.009C174.108 26.009 174.175 26.0048 174.241 26.0048C174.358 26.0048 174.47 26.009 174.587 26.0216H178.548C180.016 26.0216 181.302 26.832 181.984 28.033L181.98 28.0288Z" fill="#403E8C"/>
</g>
<path d="M50.1745 36.7151C42.5641 54.0132 19.6066 57.1881 6.99071 43.3854C-1.1808 34.5351 -2.35134 20.8926 4.34119 10.8499C7.42177 6.20301 12.0594 2.566 17.3324 0.814575C8.01633 5.30121 1.82917 15.0123 2.27881 25.4016C2.45718 31.3714 4.84285 37.2554 8.90446 41.6228C20.6582 54.5386 41.4642 51.6656 50.1745 36.7151Z" fill="#AFADEA"/>
<path d="M40.617 43.8661C34.2886 48.1478 25.608 48.703 18.6628 45.461C7.58904 40.6613 1.88125 27.0934 6.05061 15.7538C8.58494 8.34194 15.0062 2.44672 22.6054 0.631942C26.3066 -0.251224 30.2121 -0.221412 33.8575 0.799632C31.9958 0.590951 30.1378 0.553687 28.3058 0.710197C17.247 1.73124 8.18361 10.5853 7.35494 21.7385C6.08406 39.6999 24.5898 51.5202 40.617 43.8661Z" fill="#AFADEA"/>
<path d="M53.4036 15.7986C62.0136 34.4345 47.8705 57.5198 26.8081 55.9211C22.4567 55.5783 18.1387 54.0542 14.6196 51.5276C18.5177 53.2828 22.6388 54.2703 26.8713 54.2107C46.5365 53.9387 58.2753 34.0656 53.4036 15.7986Z" fill="#AFADEA"/>
<path d="M43.7346 18.6158L35.3662 14.4943C34.779 14.2037 34.0953 14.1962 33.5007 14.4682L11.1824 24.7569C11.1824 24.7569 13.3414 29.605 19.3465 26.6425L29.3016 22.1149C29.703 21.9323 30.1898 22.0366 30.4425 22.3944C30.4648 22.4242 30.4871 22.4577 30.5056 22.4913C30.5725 22.6105 30.5985 22.7335 30.5985 22.849C30.5985 23.1844 30.383 23.4825 30.0783 23.6204L17.9529 29.1728C17.9529 29.1728 19.9633 32.7576 23.4118 32.37C23.6384 32.344 23.854 32.2806 24.0584 32.1837L32.0812 28.4834C32.3674 28.3529 32.6944 28.3269 32.9879 28.4424C33.1923 28.5244 33.3967 28.6697 33.5007 28.9417C33.6791 29.4001 33.4264 29.7466 33.2481 29.9181C33.1737 29.9889 33.092 30.0447 33.0028 30.0857L25.0022 33.7749C25.0022 33.7749 26.5927 36.9238 30.1749 36.7896C30.4871 36.7784 30.7918 36.7002 31.0705 36.5697L41.3378 31.8372C41.9287 31.5651 42.3671 31.0434 42.5381 30.4174L44.9906 21.418C45.2954 20.3038 44.764 19.13 43.7309 18.6195L43.7346 18.6158ZM41.0926 23.557C40.1375 23.9967 39.0116 23.5794 38.5731 22.6217C38.1346 21.6677 38.5545 20.5386 39.5058 20.0989C40.4571 19.6592 41.5831 20.0803 42.0216 21.0342C42.46 21.9882 42.0439 23.121 41.0926 23.557Z" fill="#403E8C"/>
<defs>
<clipPath id="clip0_75_861">
<rect width="119" height="14" fill="white" transform="translate(63.5 20)"/>
</clipPath>
</defs>
</svg>
